<svg width="40" height="40" viewBox="0 0 40 40" fill="none" xmlns="http://www.w3.org/2000/svg">
<path d="M5.6 2H2V5.6H5.6V2Z" fill="#F0B90B"/>
<path d="M30.791 34.4H9.20898V38H30.791V34.4Z" fill="#F0B90B"/>
<path d="M30.791 2H9.20898V5.6H30.791V2Z" fill="#F0B90B"/>
<path d="M38 9.20898H34.4V30.8H38V9.20898Z" fill="#F0B90B"/>
<path d="M5.60903 9.20898H2.00903V30.8H5.60903V9.20898Z" fill="#F0B90B"/>
<path d="M37.991 2H34.391V5.6H37.991V2Z" fill="#F0B90B"/>
<path d="M5.6 34.4H2V38H5.6V34.4Z" fill="#F0B90B"/>
<path d="M37.991 34.4H34.391V38H37.991V34.4Z" fill="#F0B90B"/>
<path d="M20 9.19995C14.033 9.19995 9.20001 14.033 9.20001 20C9.20001 25.967 14.033 30.8 20 30.8C25.967 30.8 30.8 25.967 30.8 20C30.8 14.033 25.967 9.19995 20 9.19995ZM23.573 24.968C22.934 25.643 22.052 26.057 21.116 26.12V27.83H18.974V26.183C17.489 26.084 16.112 25.409 15.113 24.302L15.068 24.257L15.113 24.221L16.76 22.736L16.805 22.763C17.426 23.465 18.281 23.924 19.208 24.086V20.999C16.679 20.468 15.455 19.325 15.455 17.507C15.455 15.599 16.733 14.357 18.974 14.078V12.404H21.116V14.078C22.358 14.177 23.519 14.753 24.347 15.68L24.383 15.725L22.682 17.264L22.637 17.219C22.178 16.697 21.575 16.328 20.9 16.175V19.01C23.447 19.604 24.581 20.666 24.581 22.448C24.572 23.384 24.212 24.284 23.573 24.968Z" fill="#F0B90B"/>
<path d="M22.016 22.655C22.016 22.979 21.899 23.285 21.701 23.546C21.503 23.789 21.224 23.969 20.909 24.032V21.386C21.89 21.701 22.016 22.259 22.016 22.655Z" fill="#F0B90B"/>
<path d="M19.208 16.1479V18.6229C18.362 18.3799 18.029 18.0379 18.029 17.4169C18.029 16.7329 18.407 16.3279 19.208 16.1479Z" fill="#F0B90B"/>
</svg>
